ffmpeg version N-87353-g183fd30 Copyright (c) 2000-2017 the FFmpeg developers
  built with gcc 7.2.0 (GCC)
  configuration: --enable-gpl --enable-version3 --enable-cuda --enable-cuvid --enable-d3d11va --enable-dxva2 --enable-libmfx --enable-nvenc --enable-avisynth --enable-bzlib --enable-fontconfig --enable-frei0r --enable-gnutls --enable-iconv --enable-libass --enable-libbluray --enable-libbs2b --enable-libcaca --enable-libfreetype --enable-libgme --enable-libgsm --enable-libilbc --enable-libmodplug --enable-libmp3lame --enable-libopencore-amrnb --enable-libopencore-amrwb --enable-libopenh264 --enable-libopenjpeg --enable-libopus --enable-librtmp --enable-libsnappy --enable-libsoxr --enable-libspeex --enable-libtheora --enable-libtwolame --enable-libvidstab --enable-libvo-amrwbenc --enable-libvorbis --enable-libvpx --enable-libwavpack --enable-libwebp --enable-libx264 --enable-libx265 --enable-libxavs --enable-libxvid --enable-libxml2 --enable-libzimg --enable-lzma --enable-zlib
  libavutil      55. 76.100 / 55. 76.100
  libavcodec     57.106.101 / 57.106.101
  libavformat    57. 82.101 / 57. 82.101
  libavdevice    57.  8.101 / 57.  8.101
  libavfilter     6.105.100 /  6.105.100
  libswscale      4.  7.103 /  4.  7.103
  libswresample   2.  8.100 /  2.  8.100
  libpostproc    54.  6.100 / 54.  6.100
Input #0, image2pipe, from 'pipe:':
  Duration: N/A, bitrate: N/A
    Stream #0:0: Video: ppm, rgb24, 320x240, 20 fps, 20 tbr, 20 tbn, 20 tbc
Stream mapping:
  Stream #0:0 -> #0:0 (ppm (native) -> h264 (libx264))
[libx264 @ 0000000004ab3780] using cpu capabilities: MMX2 SSE2Fast SSSE3 SSE4.2 AVX FMA3 BMI2 AVX2
[libx264 @ 0000000004ab3780] profile High, level 1.3
[libx264 @ 0000000004ab3780] 264 - core 152 r2851 ba24899 - H.264/MPEG-4 AVC codec - Copyleft 2003-2017 - http://www.videolan.org/x264.html - options: cabac=1 ref=3 deblock=1:0:0 analyse=0x3:0x113 me=hex subme=7 psy=1 psy_rd=1.00:0.00 mixed_ref=1 me_range=16 chroma_me=1 trellis=1 8x8dct=1 cqm=0 deadzone=21,11 fast_pskip=1 chroma_qp_offset=-2 threads=7 lookahead_threads=1 sliced_threads=0 nr=0 decimate=1 interlaced=0 bluray_compat=0 constrained_intra=0 bframes=3 b_pyramid=2 b_adapt=1 b_bias=0 direct=1 weightb=1 open_gop=0 weightp=2 keyint=250 keyint_min=20 scenecut=40 intra_refresh=0 rc_lookahead=40 rc=abr mbtree=1 bitrate=400 ratetol=1.0 qcomp=0.60 qpmin=0 qpmax=69 qpstep=4 ip_ratio=1.40 aq=1:1.00
Output #0, mp4, to '.\mission_records\cbee6592-b19d-4a56-8aaa-1d32f84edbfc\video.mp4':
  Metadata:
    encoder         : Lavf57.82.101
    Stream #0:0: Video: h264 (libx264) (avc1 / 0x31637661), yuv420p, 320x240, q=-1--1, 400 kb/s, 20 fps, 10240 tbn, 20 tbc
    Metadata:
      encoder         : Lavc57.106.101 libx264
    Side data:
      cpb: bitrate max/min/avg: 0/0/400000 buffer size: 0 vbv_delay: -1
frame=   32 fps=0.0 q=0.0 size=       0kB time=00:00:00.00 bitrate=N/A speed=   0x    frame=   41 fps= 40 q=0.0 size=       0kB time=00:00:00.00 bitrate=N/A speed=   0x    frame=   50 fps= 32 q=0.0 size=       0kB time=00:00:00.00 bitrate=N/A speed=   0x    frame=   58 fps= 28 q=26.0 size=       0kB time=00:00:00.20 bitrate=   1.9kbits/s speed=0.0961x    frame=   67 fps= 26 q=26.0 size=       0kB time=00:00:00.65 bitrate=   0.6kbits/s speed=0.249x    frame=   76 fps= 24 q=26.0 size=       0kB time=00:00:01.10 bitrate=   0.3kbits/s speed=0.35x    frame=   85 fps= 23 q=25.0 size=       0kB time=00:00:01.55 bitrate=   0.2kbits/s speed=0.421x    frame=   93 fps= 22 q=25.0 size=       0kB time=00:00:01.95 bitrate=   0.2kbits/s speed=0.465x    frame=  102 fps= 21 q=26.0 size=       0kB time=00:00:02.40 bitrate=   0.2kbits/s speed=0.506x    frame=  111 fps= 21 q=26.0 size=       0kB time=00:00:02.85 bitrate=   0.1kbits/s speed=0.543x    frame=  119 fps= 21 q=23.0 size=       0kB time=00:00:03.25 bitrate=   0.1kbits/s speed=0.565x    frame=  128 fps= 20 q=26.0 size=       0kB time=00:00:03.70 bitrate=   0.1kbits/s speed=0.591x    frame=  138 fps= 20 q=26.0 size=       0kB time=00:00:04.20 bitrate=   0.1kbits/s speed=0.616x    frame=  148 fps= 20 q=26.0 size=       0kB time=00:00:04.70 bitrate=   0.1kbits/s speed=0.64x    frame=  157 fps= 20 q=26.0 size=     256kB time=00:00:05.15 bitrate= 407.3kbits/s speed=0.654x    frame=  166 fps= 20 q=26.0 size=     256kB time=00:00:05.60 bitrate= 374.6kbits/s speed=0.667x    frame=  168 fps= 19 q=-1.0 Lsize=     435kB time=00:00:08.25 bitrate= 431.9kbits/s speed=0.948x    
video:433kB audio:0kB subtitle:0kB other streams:0kB global headers:0kB muxing overhead: 0.519551%
[libx264 @ 0000000004ab3780] frame I:14    Avg QP:18.63  size:  4672
[libx264 @ 0000000004ab3780] frame P:91    Avg QP:21.21  size:  2734
[libx264 @ 0000000004ab3780] frame B:63    Avg QP:21.43  size:  2034
[libx264 @ 0000000004ab3780] consecutive B-frames: 47.6%  6.0%  3.6% 42.9%
[libx264 @ 0000000004ab3780] mb I  I16..4: 29.1% 57.8% 13.0%
[libx264 @ 0000000004ab3780] mb P  I16..4: 15.5% 23.2%  4.5%  P16..4: 25.9%  8.6%  8.0%  0.0%  0.0%    skip:14.3%
[libx264 @ 0000000004ab3780] mb B  I16..4:  2.8%  6.5%  1.4%  B16..8: 32.5% 10.3%  7.3%  direct: 7.3%  skip:32.0%  L0:50.2% L1:44.1% BI: 5.7%
[libx264 @ 0000000004ab3780] final ratefactor: 21.69
[libx264 @ 0000000004ab3780] 8x8 transform intra:55.5% inter:61.0%
[libx264 @ 0000000004ab3780] coded y,uvDC,uvAC intra: 51.9% 23.6% 2.8% inter: 20.9% 18.6% 0.1%
[libx264 @ 0000000004ab3780] i16 v,h,dc,p:  9% 62%  7% 22%
[libx264 @ 0000000004ab3780] i8 v,h,dc,ddl,ddr,vr,hd,vl,hu:  5% 23% 37%  5%  5%  3%  9%  4%  9%
[libx264 @ 0000000004ab3780] i4 v,h,dc,ddl,ddr,vr,hd,vl,hu:  7% 27% 22%  7%  8%  4% 12%  4% 11%
[libx264 @ 0000000004ab3780] i8c dc,h,v,p: 60% 33%  2%  5%
[libx264 @ 0000000004ab3780] Weighted P-Frames: Y:12.1% UV:4.4%
[libx264 @ 0000000004ab3780] ref P L0: 69.0%  5.8% 16.5%  7.9%  0.8%
[libx264 @ 0000000004ab3780] ref B L0: 88.7%  9.1%  2.2%
[libx264 @ 0000000004ab3780] ref B L1: 95.6%  4.4%
[libx264 @ 0000000004ab3780] kb/s:421.31
